<?xml version="1.0" encoding="UTF-8"?>
<svg id="_レイヤー_2" data-name="レイヤー_2" xmlns="http://www.w3.org/2000/svg" viewBox="0 0 187.05 50.47">
  <defs>
    <style>
      .cls-1 {
        fill: #0097e0;
      }

      .cls-2 {
        fill: #595757;
      }

      .cls-3 {
        fill: #9fa0a0;
      }
    </style>
  </defs>
  <g id="_レイヤー_2-2" data-name="レイヤー_2">
    <g>
      <g>
        <path class="cls-3" d="M10.28,36.71l2.95-.12c.06.29.19.51.39.66.32.25.77.37,1.36.37.44,0,.78-.06,1.02-.19.24-.12.36-.27.36-.44,0-.16-.11-.3-.34-.42-.23-.12-.75-.24-1.58-.35-1.36-.18-2.33-.43-2.91-.74-.58-.3-.87-.69-.87-1.17,0-.31.15-.6.45-.87.3-.28.75-.5,1.35-.65.6-.16,1.42-.24,2.46-.24,1.28,0,2.26.14,2.93.43.67.28,1.07.74,1.2,1.36l-2.92.1c-.08-.27-.24-.46-.49-.58-.25-.12-.59-.18-1.03-.18-.36,0-.63.05-.82.14-.18.09-.27.2-.27.34,0,.1.08.18.23.26.15.08.5.15,1.04.22,1.35.17,2.32.35,2.91.53.59.18,1.01.4,1.28.67.27.26.4.56.4.89,0,.39-.18.75-.53,1.07-.36.33-.85.57-1.49.74-.64.17-1.44.25-2.41.25-1.7,0-2.89-.2-3.54-.59-.66-.39-1.03-.89-1.11-1.5Z"/>
        <path class="cls-3" d="M22.32,32.67h8.3v1.28h-5.19v.97h4.81v1.22h-4.81v1.19h5.34v1.36h-8.45v-6.02Z"/>
        <path class="cls-3" d="M36.98,34.05h1.54c.77,0,1.33.2,1.33.63s-.55.57-1.57.57h-1.3v-1.2ZM37.98,36.58c1.54,0,1.76.26,1.76,1.05,0,.54.08.92.17,1.06h3.35v-.18c-.39,0-.35-.27-.35-1.06,0-1.22-.64-1.37-1.71-1.6,1.18-.19,1.69-.78,1.69-1.48,0-1.18-1.11-1.72-4.47-1.72h-4.76v6.05h3.3v-2.11h1.01Z"/>
        <path class="cls-3" d="M45.14,32.67h3.24l2.25,4.33,2.22-4.33h3.14l-3.72,6.02h-3.36l-3.78-6.02Z"/>
        <path class="cls-3" d="M58.56,32.67h3.11v6.02h-3.11v-6.02Z"/>
        <path class="cls-3" d="M71.93,36.23l2.72.49c-.18.46-.47.84-.86,1.14-.39.31-.88.54-1.46.69-.58.16-1.32.23-2.22.23-1.09,0-1.98-.09-2.67-.28-.69-.19-1.29-.52-1.79-1-.5-.48-.75-1.09-.75-1.84,0-1,.44-1.76,1.32-2.3.88-.54,2.13-.8,3.74-.8,1.26,0,2.26.15,2.98.46.72.31,1.26.78,1.61,1.42l-2.73.36c-.1-.18-.2-.32-.3-.4-.17-.14-.39-.25-.64-.33-.25-.08-.53-.12-.84-.12-.7,0-1.24.17-1.61.51-.28.25-.42.65-.42,1.19,0,.67.17,1.13.5,1.38.34.25.81.37,1.42.37s1.04-.1,1.34-.3c.3-.2.52-.49.66-.87Z"/>
        <path class="cls-3" d="M77.55,32.67h8.3v1.28h-5.19v.97h4.81v1.22h-4.81v1.19h5.34v1.36h-8.45v-6.02Z"/>
        <path class="cls-3" d="M101.1,36.23l2.72.49c-.18.46-.47.84-.86,1.14-.39.31-.88.54-1.46.69-.58.16-1.32.23-2.22.23-1.09,0-1.98-.09-2.67-.28-.69-.19-1.29-.52-1.79-1-.5-.48-.75-1.09-.75-1.84,0-1,.44-1.76,1.32-2.3.88-.54,2.13-.8,3.74-.8,1.26,0,2.26.15,2.98.46.72.31,1.26.78,1.61,1.42l-2.73.36c-.1-.18-.2-.32-.3-.4-.17-.14-.39-.25-.64-.33-.25-.08-.53-.12-.84-.12-.7,0-1.24.17-1.61.51-.28.25-.42.65-.42,1.19,0,.67.17,1.13.5,1.38.34.25.81.37,1.42.37s1.04-.1,1.34-.3c.3-.2.52-.49.66-.87Z"/>
        <path class="cls-3" d="M110.14,34.05h1.54c.77,0,1.33.2,1.33.63s-.55.57-1.57.57h-1.3v-1.2ZM111.15,36.58c1.54,0,1.76.26,1.76,1.05,0,.54.08.92.17,1.06h3.35v-.18c-.39,0-.35-.27-.35-1.06,0-1.22-.64-1.37-1.71-1.6,1.18-.19,1.69-.78,1.69-1.48,0-1.18-1.11-1.72-4.47-1.72h-4.76v6.05h3.3v-2.11h1.01Z"/>
        <path class="cls-3" d="M119.29,32.67h8.3v1.28h-5.19v.97h4.81v1.22h-4.81v1.19h5.34v1.36h-8.45v-6.02Z"/>
        <path class="cls-3" d="M134.41,36.39l1.09-2.16,1.09,2.16h-2.19ZM137.75,38.69h3.24l-3.77-6.02h-3.38l-3.76,6.02h3.16l.49-1h3.52l.5,1Z"/>
        <path class="cls-3" d="M142,32.67h9.41v1.48h-3.16v4.53h-3.09v-4.53h-3.16v-1.48Z"/>
        <path class="cls-3" d="M157.29,34.37c.38-.27.88-.4,1.5-.4s1.17.13,1.55.39c.38.26.57.68.57,1.25,0,.67-.18,1.14-.55,1.4-.36.26-.88.39-1.54.39s-1.16-.13-1.53-.4c-.38-.27-.56-.7-.56-1.31s.19-1.06.57-1.33ZM154.32,37.45c.46.47,1.06.81,1.8,1.03.74.21,1.67.32,2.8.32s2.04-.12,2.78-.37c.74-.25,1.31-.6,1.71-1.05.39-.45.59-1.03.59-1.74,0-.97-.45-1.72-1.35-2.26-.9-.54-2.19-.81-3.85-.81s-2.89.27-3.8.82c-.91.55-1.37,1.31-1.37,2.3,0,.71.23,1.3.69,1.77Z"/>
        <path class="cls-3" d="M170.49,34.05h1.54c.77,0,1.33.2,1.33.63s-.55.57-1.57.57h-1.3v-1.2ZM171.49,36.58c1.54,0,1.76.26,1.76,1.05,0,.54.08.92.17,1.06h3.35v-.18c-.39,0-.35-.27-.35-1.06,0-1.22-.64-1.37-1.71-1.6,1.18-.19,1.69-.78,1.69-1.48,0-1.18-1.11-1.72-4.46-1.72h-4.76v6.05h3.3v-2.11h1.01Z"/>
      </g>
      <g>
        <path class="cls-3" d="M48.31,48.98h-4.41v-2.12h3.36v-.5h-3.36v-1.99h4.41v-.51h-5.14v5.61h5.14v-.49Z"/>
        <path class="cls-3" d="M57.1,46.71c0-.49-.14-.84-.43-1.05-.28-.21-.67-.31-1.14-.31-.77,0-1.46.29-2.07.86-.08-.25-.2-.44-.36-.58-.26-.19-.64-.28-1.13-.28-.69,0-1.31.27-1.86.8v-.71h-.69v4.04h.69v-2.74c.55-.64,1.16-.96,1.82-.96.24,0,.46.06.66.19.19.17.28.4.28.69v2.82h.69v-2.74c.64-.64,1.23-.96,1.78-.96.73,0,1.09.28,1.09.84v2.85h.69v-2.77Z"/>
        <path class="cls-3" d="M61.89,48.74c-.33.26-.72.38-1.18.37-.66-.01-1.2-.29-1.62-.84v-1.61c.42-.58.96-.87,1.62-.87.56,0,.99.19,1.29.56.25.31.37.7.37,1.15,0,.58-.16.99-.49,1.24ZM62.34,45.8c-.4-.31-.9-.46-1.5-.46-.71,0-1.3.25-1.75.75v-.62h-.73v4.97h.73v-1.61c.46.49,1.05.74,1.75.74.62,0,1.14-.16,1.57-.49.46-.35.69-.88.69-1.58,0-.74-.25-1.31-.76-1.69Z"/>
        <path class="cls-3" d="M64.93,49.47h-.73v-5.69h.73v5.69Z"/>
        <path class="cls-3" d="M69.48,48.8c-.28.23-.65.34-1.09.34-.58,0-1-.18-1.28-.53-.23-.28-.34-.67-.34-1.15,0-1.12.54-1.67,1.62-1.67.43,0,.78.1,1.05.31.37.28.56.74.56,1.36s-.17,1.06-.52,1.34ZM70.15,45.97c-.42-.42-1.01-.62-1.77-.62-.65,0-1.18.15-1.58.46-.51.39-.77.95-.77,1.65s.24,1.24.73,1.62c.42.33.96.49,1.62.49s1.19-.16,1.61-.49c.49-.38.73-.92.73-1.62,0-.6-.19-1.1-.57-1.49Z"/>
        <path class="cls-3" d="M76.51,45.49l-1.78,3.18c-.28.49-.64.92-1.09,1.3-.47.33-1.03.5-1.66.5h-.56v-.53h.6c.7,0,1.25-.27,1.66-.81l-2.18-3.64h.81l1.78,3.05,1.62-3.05h.8Z"/>
        <path class="cls-3" d="M85.17,49.47h-.69v-2.85c0-.56-.36-.84-1.09-.84-.55,0-1.14.32-1.78.96v2.74h-.69v-2.82c0-.29-.09-.52-.28-.69-.19-.12-.41-.19-.66-.19-.66,0-1.26.32-1.82.96v2.74h-.69v-4.04h.69v.71c.55-.53,1.17-.8,1.86-.8.49,0,.87.09,1.13.28.16.14.28.33.36.58.61-.58,1.3-.86,2.07-.86.48,0,.86.1,1.14.31.28.21.43.56.43,1.05v2.77Z"/>
        <path class="cls-3" d="M87.09,47.05c0-.35.16-.66.48-.91.33-.24.72-.36,1.19-.36s.84.1,1.13.31c.3.26.46.58.48.96h-3.28ZM90.5,45.87c-.4-.35-.95-.53-1.63-.53-.78,0-1.39.16-1.82.49-.51.39-.77.95-.77,1.66,0,.66.26,1.19.77,1.58.43.33,1.01.49,1.75.49,1.18,0,1.91-.38,2.18-1.14h-.77c-.17.48-.65.72-1.42.72-.59,0-1.04-.17-1.35-.52-.26-.31-.4-.69-.4-1.16h4.09c-.02-.69-.23-1.22-.63-1.58Z"/>
        <path class="cls-3" d="M96.72,46.77c0-.52-.15-.89-.44-1.11-.27-.21-.7-.31-1.3-.31-.71,0-1.4.27-2.06.8v-.71h-.69v4.04h.69v-2.74c.64-.64,1.34-.96,2.1-.96.28,0,.52.07.73.22.19.16.28.44.28.83v2.64h.69v-2.7Z"/>
        <path class="cls-3" d="M101.03,46.01h-1.7v2.31c0,.25.06.42.19.52.12.09.36.14.7.14h.65v.49h-.65c-1.07,0-1.61-.32-1.61-.97v-2.49h-.98v-.5h.98v-1.4h.73v1.4h1.7v.5Z"/>
        <path class="cls-3" d="M111.15,47.35l1.27-2.98,1.33,2.98h-2.6ZM112.79,43.86h-.75l-2.53,5.61h.76l.68-1.65h3.02l.69,1.65h.75l-2.6-5.61Z"/>
        <path class="cls-3" d="M119.83,47.28c-.23.1-.57.16-1.01.16-.42,0-.76-.06-1.02-.18-.32-.14-.48-.37-.48-.67,0-.28.16-.5.49-.66.24-.12.58-.18,1.01-.18s.76.06,1.03.18c.34.14.51.36.51.66s-.18.52-.53.69ZM120,48.56l-2.14-.2c-.41-.03-.61-.11-.61-.24,0-.12.2-.24.61-.37.28.06.61.09.97.09.67-.01,1.21-.12,1.62-.31.4-.24.62-.53.65-.87-.03-.23-.11-.43-.24-.61.15-.15.41-.23.77-.23v-.39c-.55,0-.91.1-1.09.31-.33-.26-.89-.38-1.71-.38-.6,0-1.11.09-1.51.28-.48.23-.72.56-.72,1,0,.39.26.7.77.94-.57.18-.85.4-.85.66,0,.17.18.34.53.49-.57.17-.85.4-.85.7s.21.53.62.72c.42.19,1.19.29,2.33.3.7,0,1.3-.08,1.79-.25.45-.15.69-.39.73-.71-.03-.51-.58-.81-1.66-.9ZM120.17,49.89c-.37.09-.8.13-1.3.13-.36,0-.74-.05-1.13-.15-.54-.13-.81-.3-.81-.51,0-.19.22-.37.66-.53l2.55.25c.46.04.7.16.73.34-.03.17-.26.32-.69.46Z"/>
        <path class="cls-3" d="M123.08,47.05c0-.35.16-.66.48-.91.33-.24.72-.36,1.19-.36s.84.1,1.13.31c.3.26.46.58.48.96h-3.28ZM126.49,45.87c-.4-.35-.95-.53-1.63-.53-.78,0-1.39.16-1.82.49-.51.39-.77.95-.77,1.66,0,.66.26,1.19.77,1.58.43.33,1.01.49,1.75.49,1.18,0,1.91-.38,2.18-1.14h-.77c-.17.48-.65.72-1.42.72-.59,0-1.04-.17-1.35-.52-.26-.31-.4-.69-.4-1.16h4.09c-.02-.69-.23-1.22-.63-1.58Z"/>
        <path class="cls-3" d="M132.61,46.77c0-.52-.15-.89-.44-1.11-.27-.21-.7-.31-1.3-.31-.71,0-1.4.27-2.06.8v-.71h-.68v4.04h.68v-2.74c.64-.64,1.34-.96,2.1-.96.28,0,.52.07.73.22.19.16.28.44.28.83v2.64h.69v-2.7Z"/>
        <path class="cls-3" d="M138.14,48.39c-.21.78-.92,1.17-2.11,1.17-.73,0-1.31-.16-1.74-.49-.48-.38-.73-.94-.73-1.68,0-.67.24-1.19.73-1.56.43-.33.97-.49,1.62-.49.61,0,1.1.09,1.46.28.43.22.67.49.73.8h-.77c-.19-.43-.62-.64-1.3-.64-.54,0-.96.15-1.26.44-.29.29-.44.68-.44,1.17s.13.89.39,1.21c.32.37.78.55,1.38.54.67-.01,1.11-.26,1.3-.75h.73Z"/>
        <path class="cls-3" d="M143.08,45.49l-1.62,3.05-1.78-3.05h-.81l2.18,3.64c-.41.54-.96.81-1.66.81h-.6v.53h.56c.64,0,1.19-.17,1.66-.5.45-.38.81-.81,1.09-1.3l1.78-3.18h-.8Z"/>
      </g>
      <g>
        <path class="cls-2" d="M13.07,16.37v3.8h-7.58v6.19H0V9.15h14.66v3.95H5.48v3.28h7.58Z"/>
        <path class="cls-2" d="M49.46,26.37l-7.9-10.14.19,10.14h-5.38V9.17h5.38l2.63,3.36,5.26,6.76-.19-10.12h5.39v17.2h-5.39Z"/>
        <path class="cls-2" d="M75.64,22.8v3.78h-16.16V9.36h15.84v3.78h-10.36v2.88h8.89v3.61h-8.89v3.17h10.67Z"/>
        <path class="cls-2" d="M93.59,21.1c.19,1.3,1.11,1.68,2.68,1.68.72,0,1.59-.11,2-.29.41-.17.6-.5.6-.9,0-.65-.39-1.11-3.65-1.89-4.11-1.01-6.93-2.04-6.93-5.42s3.02-5.59,7.83-5.59c1.67,0,3.65.34,5.02,1.16,2.41,1.41,2.68,3.46,2.8,4.26h-5.6c-.14-1.09-1.01-1.34-2.29-1.34-.77,0-2.1.13-2.1,1.01,0,.5.39.69.68.82.68.29,4.28,1.26,5.1,1.49,1.88.57,4.81,1.45,4.81,4.83,0,2.48-1.91,5.92-8.31,5.92-1.18,0-5.22-.17-7.05-2.75-.94-1.28-1.09-2.44-1.18-2.98h5.6Z"/>
        <path class="cls-2" d="M119.07,26.35h-5.53v-13.25h-6.18v-3.95h17.9v3.95h-6.18v13.25Z"/>
        <path class="cls-2" d="M166.99,16.37v3.8h-7.58v6.19h-5.48V9.15h14.66v3.95h-9.18v3.28h7.58Z"/>
        <path class="cls-2" d="M185.46,16.37v3.8h-7.58v6.19h-5.48V9.15h14.66v3.95h-9.18v3.28h7.58Z"/>
        <path class="cls-1" d="M30.27,3.83c0,2.11-2.28,3.83-5.1,3.83s-5.1-1.71-5.1-3.83,2.28-3.83,5.1-3.83,5.1,1.71,5.1,3.83Z"/>
        <polygon class="cls-1" points="148.99 26.56 142.14 26.56 137.85 16.92 133.57 26.34 126.72 26.34 134.64 9 140.85 9 148.99 26.56"/>
        <polygon class="cls-1" points="25.21 26.56 20.07 9.42 30.56 9.42 25.21 26.56"/>
      </g>
    </g>
  </g>
</svg>